<svg width="586" height="453" viewBox="0 0 586 453" fill="none" xmlns="http://www.w3.org/2000/svg">
<ellipse cx="304.5" cy="30.5" rx="165.5" ry="23.5" fill="#DCCD14"/>
<path d="M6.00645 395.895L135.698 37.891C137.849 31.9542 143.487 28 149.801 28H457.691C464.291 28 470.115 32.3135 472.039 38.6262L581.16 396.597C583.75 405.094 578.43 413.968 569.715 415.688L402.296 448.716C401.34 448.905 400.367 449 399.392 449H195.037C194.104 449 193.173 448.913 192.257 448.74L17.3292 415.744C8.24473 414.03 2.8577 404.586 6.00645 395.895Z" fill="#DCCD14" stroke="#DCCD14" stroke-width="8"/>
<path d="M92.2069 157.593C63.9138 179.186 120.457 61.5 139.457 29.5001C158.457 -2.49992 394.71 -5.3841 463.5 29.5C514.359 55.2914 521.343 149.453 522.412 192.002C522.676 202.523 511.84 214.438 501.32 214.754C399.52 217.812 256.36 127.1 162.5 122.5C124.187 120.622 120.5 136 92.2069 157.593Z" fill="#754112" stroke="#754112" stroke-width="8"/>
</svg>
