<svg width="283" height="288" viewBox="0 0 283 288" fill="none" xmlns="http://www.w3.org/2000/svg">
<ellipse cx="146.495" cy="20.4331" rx="79.0785" ry="14.8" fill="#FFEB00"/>
<path d="M5.07405 246.174L64.5206 29.8836C66.3104 23.3718 72.231 18.8589 78.9843 18.8589H213.073C220.055 18.8589 226.114 23.6764 227.687 30.479L277.711 246.774C279.542 254.691 274.736 262.626 266.871 264.671L194.393 283.517C193.16 283.838 191.892 284 190.618 284H95.3585C94.1385 284 92.9232 283.851 91.7393 283.557L15.9185 264.706C7.73913 262.673 2.84037 254.301 5.07405 246.174Z" fill="#FFEB00" stroke="#FFEB00" stroke-width="8"/>
<path d="M45.0579 100.475C31.539 114.074 58.5563 39.9567 67.6348 19.8034C76.7133 -0.349815 189.599 -2.16624 222.468 19.8034C244.471 34.5105 249.287 84.5181 250.381 113.735C250.777 124.338 239.429 137.25 228.904 135.912C181.445 129.878 120.02 81.0463 78.645 78.3735C60.3384 77.1909 58.5768 86.8757 45.0579 100.475Z" fill="#754112" stroke="#754112" stroke-width="8"/>
</svg>
